<?xml version="1.0" encoding="utf-8"?>
<!-- Generator: Adobe Illustrator 25.2.3, SVG Export Plug-In . SVG Version: 6.00 Build 0)  -->
<svg version="1.1" id="Layer_1" xmlns="http://www.w3.org/2000/svg" xmlns:xlink="http://www.w3.org/1999/xlink" x="0px" y="0px"
	 viewBox="0 0 458.3 259.7" style="enable-background:new 0 0 458.3 259.7;" xml:space="preserve">
<style type="text/css">
	.st0{fill:#81A740;}
	.st1{fill:#FFFFFF;stroke:#636466;stroke-width:1.11;stroke-miterlimit:10;}
	.st2{fill:#636466;}
	.st3{fill:#E34C22;}
	.st4{fill:#6DBB29;}
	.st5{fill:#599DD5;}
	.st6{fill:#F3BF00;}
	.st7{fill:#7F6D1F;}
</style>
<g>
	<g>
		<path class="st0" d="M203,70.1c-0.1-1.1-0.5-2.1-1.2-2.9c-1.1-1.3-2.2-2.5-3.4-3.6c-2.4-2.5-5.2-4.6-8.5-6.1
			c-16.3-8.6-37.8-5.3-51.3,8.2c-17.6,17.5-16.8,47,2.2,63.1c17.9,15.2,46.7,11.5,59.4-8.5C208.7,107,211,84.9,203,70.1z M182,116.9
			c-12.2,9.8-29.7,5.9-37.3-7.4c-7.2-12.5-2.5-28.5,8.9-36.7c8.9-6.4,18.7-7,28.3-4.5c0.1,0.1,0.2,0.2,0.3,0.2
			C199,76.4,194.8,106.6,182,116.9z"/>
	</g>
	<path d="M40,106.6v14.5c0,8.1-4,12.3-11.1,12.3c-7.4,0-11-4.2-11-12.2v-14.9c0-8.2,4.7-11.9,11.3-11.9C35.9,94.4,40,98.6,40,106.6z
		 M25.4,106.1v15.4c0,3,0.9,5.3,3.6,5.3c2.6,0,3.5-1.9,3.5-5.4v-15.2c0-2.9-0.8-5-3.5-5C26.5,101.1,25.4,102.8,25.4,106.1z
		 M43.5,105.8c0-5.1,0-8.6-0.1-10.9h7.2c0.1,0.7,0.3,2.4,0.3,3.7c1.1-2.4,3.2-4.3,6.9-4.3c5.3,0,7.8,3.7,7.8,11.1V121
		c0,8.7-2.9,12.4-8.6,12.4c-3.2,0-5-1.5-6-3.2v15.4h-7.5L43.5,105.8z M51.1,120.2c0,3.8,0.7,6.5,3.5,6.5c2.9,0,3.6-2.2,3.6-5.6
		v-14.9c0-3.4-1.1-5-3.3-5c-2.4,0-3.8,1.5-3.8,5.8L51.1,120.2L51.1,120.2z M76.5,115.9v5.6c0,2.9,0.7,5.6,3.6,5.6
		c3,0,3.4-2.7,3.4-5.4v-0.1h7.3v0.1c0,3.9-0.8,11.8-10.5,11.8c-9.6,0-11-6-11-13.6v-12.4c0-5.2,1.6-13,11-13c8,0,10.7,5.5,10.7,12.9
		v8.6H76.5z M83.7,110v-3.9c0-3.5-0.8-5.4-3.5-5.4c-2.4,0-3.6,1.8-3.6,5.4v3.9H83.7z M94.6,106.6c0-7.7,0-9.9-0.1-11.7h7.2
		c0.1,0.9,0.3,2.4,0.3,3.4c1.1-2.2,3.1-4,7-4c4.6,0,7.7,2.9,7.7,9.9v28.5h-7.5v-27c0-3.4-1.2-4.6-3.3-4.6c-2.6,0-3.8,1.4-3.8,6.6
		v25.1h-7.5V106.6z M56.4,175.9v1.5c0,4.5,2,6.4,4.8,6.4c3.4,0,4.7-2.1,4.7-6.1c0-4.4-1.3-6.1-5.3-8.8c-4.8-3.2-7-5.8-7-10.7
		c0-4.9,2.1-9,7.8-9c6.2,0,7.7,4.4,7.7,9v1.8h-3.5V158c0-3.5-0.9-5.8-4.2-5.8c-2.9,0-4.1,2-4.1,5.5c0,3.4,1,4.9,4.9,7.6
		c4.7,3.1,7.5,5.7,7.5,11.8c0,6.4-2.6,9.9-8.6,9.9c-6.4,0-8.3-4.5-8.3-9.4v-1.7L56.4,175.9L56.4,175.9z M74.7,149.6
		c2.7,14.3,5.4,28.1,5.8,32h0.1c0.8-5.7,3.9-20.7,6.1-32h3.7l-8.1,38.9c-2.1,10-4.7,10.9-8.6,10.9c-0.7,0-1.7-0.1-2.2-0.3v-3.4
		c0.4,0.1,1.4,0.2,2,0.2c2.9,0,4.1-1.4,5.3-8.2l-7.9-38.1L74.7,149.6L74.7,149.6z M95.1,175.9v1.5c0,4.5,2,6.4,4.8,6.4
		c3.4,0,4.7-2.1,4.7-6.1c0-4.4-1.3-6.1-5.3-8.8c-4.8-3.2-7-5.8-7-10.7c0-4.9,2.1-9,7.8-9c6.2,0,7.7,4.4,7.7,9v1.8h-3.5V158
		c0-3.5-0.9-5.8-4.2-5.8c-2.9,0-4.1,2-4.1,5.5c0,3.4,1,4.9,4.9,7.6c4.7,3.1,7.5,5.7,7.5,11.8c0,6.4-2.6,9.9-8.6,9.9
		c-6.4,0-8.3-4.5-8.3-9.4v-1.7L95.1,175.9L95.1,175.9z M109,149.6h4.5v-9.2h3.5v9.2h5.6v3.2H117v26.8c0,2,0.4,4.1,2.8,4.1
		c0.7,0,2-0.1,2.6-0.2v2.9c-1,0.4-2.5,0.4-3.7,0.4c-2.9,0-5.2-1.5-5.2-6.5v-27.5H109L109,149.6z M127.8,168.4v6.4
		c0,4.2,0.8,8.9,5,8.9c3.9,0,4.8-3,4.8-7.1v-0.4h3.5v0.4c0,4.5-1.1,10.4-8.3,10.4c-6.5,0-8.5-4.5-8.5-12v-14.8
		c0-6,2.2-11.1,8.6-11.1c6.6,0,8.3,5.2,8.3,11.1v8.3L127.8,168.4L127.8,168.4z M137.6,165.3v-5.2c0-3.4-0.4-8-4.8-8
		c-4.2,0-5,3.7-5,8v5.1H137.6z M145.5,160.1c0-6.2,0-8.7-0.1-10.5h3.4c0.1,1,0.1,2.4,0.1,3.6c1-2.5,2.9-4.2,6.2-4.2
		c2.7,0,4.8,1.1,5.6,4.5c1-2.4,2.9-4.5,6.6-4.5c3.4,0,6.7,1.3,6.7,8.3v29h-3.6v-28.1c0-3.1-0.5-5.8-3.9-5.8c-4.1,0-5,3.9-5,8v25.9
		H158v-27.8c0-4.4-1-6.2-4-6.2c-3.9,0-4.8,3.9-4.8,8.6v25.4h-3.6L145.5,160.1L145.5,160.1z M181.1,175.9v1.5c0,4.5,2,6.4,4.8,6.4
		c3.4,0,4.7-2.1,4.7-6.1c0-4.4-1.3-6.1-5.3-8.8c-4.8-3.2-7-5.8-7-10.7c0-4.9,2.1-9,7.8-9c6.2,0,7.7,4.4,7.7,9v1.8h-3.5V158
		c0-3.5-0.9-5.8-4.2-5.8c-2.9,0-4.1,2-4.1,5.5c0,3.4,1,4.9,4.9,7.6c4.7,3.1,7.5,5.7,7.5,11.8c0,6.4-2.6,9.9-8.6,9.9
		c-6.4,0-8.3-4.5-8.3-9.4v-1.7L181.1,175.9L181.1,175.9z"/>
	<g>
		<line class="st1" x1="246.9" y1="52.7" x2="246.9" y2="199.4"/>
	</g>
	<g>
		<path d="M315.5,111.1h-3.1V93.2c0-1.4,0.1-3.1,0.3-5.2h-0.1c-0.3,1.2-0.6,2.1-0.8,2.6l-8.9,20.4h-1.5l-8.9-20.3
			c-0.2-0.5-0.5-1.5-0.8-2.7h-0.1c0.1,1.1,0.1,2.8,0.1,5.2v17.8h-3V84.5h4l8,18.6c0.6,1.4,1,2.5,1.2,3.2h0.1c0.6-1.7,1-2.8,1.3-3.3
			l8.2-18.5h3.8V111.1"/>
		<path d="M324,111.1h-3v-19h3V111.1 M324.5,85.3c0,0.6-0.2,1-0.6,1.4c-0.4,0.4-0.9,0.6-1.4,0.6c-0.5,0-1-0.2-1.4-0.5
			c-0.4-0.4-0.6-0.8-0.6-1.4c0-0.5,0.2-1,0.6-1.4c0.4-0.4,0.8-0.6,1.4-0.6c0.6,0,1,0.2,1.4,0.6C324.3,84.3,324.5,84.7,324.5,85.3"/>
		<path d="M341.7,110.2c-1.4,0.9-3.2,1.3-5.1,1.3c-1.7,0-3.2-0.4-4.6-1.2c-1.4-0.8-2.4-1.9-3.2-3.4c-0.8-1.5-1.1-3.1-1.1-4.9
			c0-3.1,0.9-5.7,2.7-7.6c1.8-1.9,4.1-2.9,7.1-2.9c1.6,0,3.1,0.3,4.3,1v3.1c-1.4-1-2.9-1.5-4.4-1.5c-1.9,0-3.5,0.7-4.7,2.1
			c-1.2,1.4-1.8,3.2-1.8,5.4c0,2.2,0.6,4,1.7,5.3c1.1,1.3,2.7,1.9,4.6,1.9c1.6,0,3.2-0.5,4.6-1.6V110.2"/>
		<path d="M355,95.2c-0.5-0.4-1.3-0.6-2.3-0.6c-1.3,0-2.4,0.6-3.2,1.9c-0.8,1.3-1.2,2.9-1.2,4.9v9.7h-3v-19h3V96h0.1
			c0.4-1.3,1-2.3,1.9-3.1c0.9-0.8,1.9-1.1,3-1.1c0.8,0,1.4,0.1,1.8,0.3V95.2"/>
		<path d="M370.7,101.6c0-2.4-0.5-4.2-1.6-5.5c-1-1.3-2.5-1.9-4.5-1.9c-1.9,0-3.4,0.7-4.6,2c-1.1,1.3-1.7,3.1-1.7,5.5
			c0,2.3,0.6,4.1,1.7,5.3c1.1,1.3,2.6,1.9,4.5,1.9c1.9,0,3.4-0.6,4.5-1.9C370.2,105.8,370.7,104,370.7,101.6 M373.8,101.5
			c0,3-0.8,5.4-2.5,7.3c-1.7,1.8-3.9,2.8-6.8,2.8c-2.8,0-5-0.9-6.6-2.7c-1.6-1.8-2.5-4.1-2.5-7.1c0-3.1,0.8-5.6,2.5-7.4
			c1.7-1.8,4-2.7,7-2.7c2.8,0,4.9,0.9,6.5,2.6C373,96,373.8,98.4,373.8,101.5"/>
		<path d="M387.7,106c0,1.6-0.6,3-1.9,4c-1.2,1-2.9,1.5-5,1.5c-1.8,0-3.3-0.4-4.6-1.2v-3.3c1.5,1.2,3.1,1.8,4.8,1.8
			c2.4,0,3.6-0.9,3.6-2.7c0-0.7-0.2-1.3-0.7-1.8c-0.5-0.5-1.5-1.1-3.2-1.8c-1.7-0.7-2.8-1.5-3.5-2.3c-0.7-0.8-1-1.9-1-3.3
			c0-1.6,0.6-2.9,1.9-3.9c1.2-1.1,2.8-1.6,4.7-1.6c1.5,0,2.8,0.3,4,0.9v3.1c-1.2-0.9-2.6-1.4-4.2-1.4c-1,0-1.8,0.2-2.4,0.7
			c-0.6,0.5-0.9,1.1-0.9,1.9c0,0.8,0.2,1.5,0.7,1.9c0.5,0.5,1.4,1,2.9,1.6c1.8,0.8,3,1.6,3.7,2.4C387.3,103.7,387.7,104.7,387.7,106
			"/>
		<path d="M405,101.6c0-2.4-0.5-4.2-1.6-5.5c-1-1.3-2.5-1.9-4.5-1.9c-1.9,0-3.4,0.7-4.6,2c-1.1,1.3-1.7,3.1-1.7,5.5
			c0,2.3,0.6,4.1,1.7,5.3c1.1,1.3,2.6,1.9,4.5,1.9c1.9,0,3.4-0.6,4.5-1.9C404.5,105.8,405,104,405,101.6 M408,101.5
			c0,3-0.8,5.4-2.5,7.3c-1.7,1.8-3.9,2.8-6.8,2.8c-2.8,0-5-0.9-6.6-2.7c-1.6-1.8-2.5-4.1-2.5-7.1c0-3.1,0.8-5.6,2.5-7.4
			c1.7-1.8,4-2.7,7-2.7c2.8,0,4.9,0.9,6.5,2.6C407.3,96,408,98.4,408,101.5"/>
		<path d="M420.3,85.6c-0.6-0.3-1.2-0.5-2-0.5c-2.1,0-3.1,1.3-3.1,4v2.9h4.4v2.6h-4.4v16.4h-3V94.7H409v-2.6h3.2V89
			c0-1.9,0.6-3.5,1.7-4.7c1.1-1.2,2.5-1.8,4.3-1.8c0.9,0,1.6,0.1,2.2,0.3V85.6"/>
		<path d="M431.1,110.9c-0.7,0.4-1.7,0.6-2.8,0.6c-3.3,0-4.9-1.9-4.9-5.6V94.7h-3.2v-2.6h3.2v-4.6l3-1v5.6h4.7v2.6h-4.7v10.7
			c0,1.3,0.2,2.2,0.6,2.7c0.4,0.5,1.1,0.8,2.1,0.8c0.7,0,1.4-0.2,1.9-0.6V110.9"/>
		<path d="M332.4,129.2c0-3.5-2-5.3-6.1-5.3h-3.6v10.9h3.2c2.1,0,3.7-0.5,4.8-1.5C331.8,132.4,332.4,131,332.4,129.2 M335.6,129.1
			c0,2.6-0.9,4.6-2.6,6.2c-1.7,1.6-4,2.4-6.9,2.4h-3.4v10.1h-3.1v-26.6h7.2c2.8,0,5,0.7,6.5,2.1
			C334.8,124.6,335.6,126.5,335.6,129.1"/>
		<path d="M348.2,138.1l-4.5,0.6c-1.5,0.2-2.6,0.6-3.2,1.1c-0.6,0.5-0.9,1.4-0.9,2.6c0,1,0.3,1.7,1,2.3c0.7,0.6,1.5,0.9,2.6,0.9
			c1.5,0,2.7-0.5,3.7-1.6c1-1.1,1.4-2.4,1.4-4V138.1 M351.2,147.7h-3v-3h-0.1c-1.3,2.3-3.2,3.4-5.7,3.4c-1.8,0-3.2-0.5-4.3-1.5
			c-1.1-1-1.6-2.3-1.6-4c0-3.5,2.1-5.6,6.2-6.2l5.6-0.8c0-3.2-1.3-4.8-3.8-4.8c-2.2,0-4.3,0.8-6.1,2.3v-3.1c0.5-0.4,1.5-0.8,2.8-1.2
			c1.3-0.4,2.5-0.6,3.5-0.6c4.4,0,6.6,2.4,6.6,7.1V147.7"/>
		<path d="M365.6,131.8c-0.5-0.4-1.3-0.6-2.3-0.6c-1.3,0-2.4,0.6-3.2,1.9c-0.8,1.3-1.2,2.9-1.2,4.9v9.7h-3v-19h3v3.9h0.1
			c0.4-1.3,1-2.3,1.9-3.1c0.9-0.8,1.9-1.1,3-1.1c0.8,0,1.4,0.1,1.8,0.3V131.8"/>
		<path d="M379.5,147.5c-0.7,0.4-1.7,0.6-2.8,0.6c-3.3,0-4.9-1.9-4.9-5.6v-11.2h-3.2v-2.6h3.2v-4.6l3-1v5.6h4.7v2.6h-4.7V142
			c0,1.3,0.2,2.2,0.6,2.7c0.4,0.5,1.1,0.8,2.1,0.8c0.7,0,1.4-0.2,1.9-0.6V147.5"/>
		<path d="M399.2,147.7h-3v-10.8c0-4-1.4-6-4.3-6c-1.5,0-2.7,0.6-3.7,1.7c-1,1.1-1.5,2.6-1.5,4.3v10.8h-3v-19h3v3.2h0.1
			c1.4-2.4,3.4-3.6,6.1-3.6c2.1,0,3.6,0.7,4.7,2c1.1,1.4,1.6,3.3,1.6,5.8V147.7"/>
		<path d="M415.6,136.4c0-1.8-0.4-3.1-1.2-4.1c-0.8-1-1.9-1.5-3.4-1.5c-1.4,0-2.6,0.5-3.6,1.5c-1,1-1.6,2.4-1.9,4H415.6 M418.7,139
			h-13.2c0,2.1,0.6,3.8,1.7,4.9c1.1,1.1,2.5,1.7,4.4,1.7c2.1,0,4-0.7,5.8-2.1v2.8c-1.6,1.2-3.8,1.8-6.5,1.8c-2.7,0-4.7-0.9-6.2-2.6
			c-1.5-1.7-2.2-4.2-2.2-7.3c0-1.9,0.4-3.6,1.1-5.1c0.7-1.6,1.8-2.8,3.1-3.6c1.3-0.9,2.8-1.3,4.4-1.3c2.4,0,4.3,0.8,5.7,2.4
			c1.4,1.6,2,3.8,2,6.7V139"/>
		<path d="M431.9,131.8c-0.5-0.4-1.3-0.6-2.3-0.6c-1.3,0-2.4,0.6-3.2,1.9c-0.8,1.3-1.2,2.9-1.2,4.9v9.7h-3v-19h3v3.9h0.1
			c0.4-1.3,1-2.3,1.9-3.1c0.9-0.8,1.9-1.1,3-1.1c0.8,0,1.4,0.1,1.8,0.3V131.8"/>
		<path class="st2" d="M370,180.5l-0.6,1.6h0c-0.1-0.4-0.3-0.9-0.5-1.6l-3.1-7.9h-3v12.5h2v-7.7c0-0.5,0-1,0-1.7
			c0-0.3,0-0.6-0.1-0.8h0c0.1,0.5,0.2,0.8,0.3,1.1l3.7,9.1h1.4l3.7-9.2c0.1-0.2,0.2-0.6,0.3-1h0c0,0.9-0.1,1.7-0.1,2.2v7.9h2.1
			v-12.5h-2.9L370,180.5"/>
		<polyline class="st2" points="378.1,185.2 380.1,185.2 380.1,178.4 380.1,176.2 378.1,176.2 378.1,181.7 378.1,185.2 		"/>
		<path class="st2" d="M379.1,172.4c-0.3,0-0.6,0.1-0.9,0.4c-0.2,0.2-0.4,0.5-0.4,0.9c0,0.3,0.1,0.6,0.4,0.9
			c0.2,0.2,0.5,0.3,0.9,0.3c0.3,0,0.6-0.1,0.9-0.3c0.2-0.2,0.4-0.5,0.4-0.9c0-0.3-0.1-0.6-0.4-0.9
			C379.8,172.5,379.5,172.4,379.1,172.4"/>
		<path class="st2" d="M387.5,176.1c-0.4-0.1-0.8-0.1-1.2-0.1c-0.9,0-1.8,0.2-2.5,0.6c-0.7,0.4-1.3,1-1.7,1.7
			c-0.4,0.7-0.6,1.6-0.6,2.6c0,0.8,0.2,1.6,0.6,2.3c0.4,0.7,0.9,1.2,1.5,1.6c0.7,0.4,1.4,0.6,2.3,0.6c1,0,1.8-0.2,2.5-0.6l0,0v-1.9
			l-0.1,0.1c-0.3,0.2-0.6,0.4-1,0.5c-0.4,0.1-0.7,0.2-1,0.2c-0.8,0-1.5-0.3-1.9-0.8c-0.5-0.5-0.7-1.2-0.7-2.1c0-0.9,0.3-1.6,0.7-2.2
			c0.5-0.5,1.1-0.8,1.9-0.8c0.7,0,1.3,0.2,2,0.7l0.1,0.1v-2l0,0C388.2,176.3,387.9,176.2,387.5,176.1"/>
		<path class="st2" d="M394.3,176c-0.5,0-1,0.2-1.4,0.5c-0.3,0.3-0.6,0.7-0.8,1.2h0v-1.6H390v9h2.1v-4.6c0-0.8,0.2-1.4,0.5-1.9
			c0.3-0.5,0.8-0.7,1.3-0.7c0.2,0,0.4,0,0.6,0.1c0.2,0.1,0.4,0.1,0.5,0.2l0.1,0.1v-2.1l0,0C394.9,176.1,394.6,176,394.3,176"/>
		<path class="st2" d="M401.5,182.9c-0.4,0.5-1,0.7-1.7,0.7c-0.8,0-1.4-0.3-1.8-0.8c-0.4-0.5-0.6-1.2-0.6-2.2c0-0.9,0.2-1.7,0.6-2.2
			c0.4-0.5,1-0.8,1.8-0.8c0.7,0,1.3,0.2,1.7,0.7c0.4,0.5,0.6,1.2,0.6,2.2C402.1,181.6,401.9,182.4,401.5,182.9 M399.9,176
			c-1.5,0-2.6,0.4-3.4,1.3c-0.8,0.9-1.2,2-1.2,3.5c0,1.4,0.4,2.5,1.2,3.4c0.8,0.8,1.9,1.2,3.2,1.2c1.4,0,2.5-0.4,3.4-1.3
			c0.8-0.9,1.2-2,1.2-3.5c0-1.4-0.4-2.6-1.2-3.4C402.3,176.4,401.3,176,399.9,176"/>
		<path class="st2" d="M408.9,179.9c-0.7-0.3-1.1-0.5-1.2-0.7c-0.2-0.2-0.3-0.4-0.3-0.7c0-0.3,0.1-0.5,0.3-0.6
			c0.2-0.2,0.5-0.3,0.9-0.3c0.3,0,0.7,0.1,1.1,0.2c0.4,0.1,0.7,0.3,0.9,0.4l0.1,0.1v-1.9l0,0c-0.2-0.1-0.6-0.2-0.9-0.3
			c-0.4-0.1-0.7-0.1-1-0.1c-1,0-1.8,0.3-2.4,0.8c-0.6,0.5-0.9,1.2-0.9,2c0,0.4,0.1,0.8,0.2,1.1c0.1,0.3,0.3,0.6,0.6,0.8
			c0.3,0.2,0.7,0.5,1.3,0.7c0.5,0.2,0.8,0.4,1.1,0.5c0.2,0.1,0.4,0.3,0.5,0.4c0.1,0.1,0.1,0.3,0.1,0.5c0,0.6-0.4,0.9-1.4,0.9
			c-0.3,0-0.7-0.1-1.1-0.2c-0.4-0.1-0.8-0.3-1.2-0.6l-0.1-0.1v2.1l0,0c0.3,0.1,0.7,0.3,1.1,0.3c0.4,0.1,0.8,0.1,1.2,0.1
			c1.1,0,1.9-0.3,2.6-0.8c0.6-0.5,1-1.2,1-2c0-0.6-0.2-1.1-0.5-1.5C410.3,180.6,409.7,180.2,408.9,179.9"/>
		<path class="st2" d="M418.3,182.9c-0.4,0.5-1,0.7-1.7,0.7c-0.8,0-1.4-0.3-1.8-0.8c-0.4-0.5-0.6-1.2-0.6-2.2c0-0.9,0.2-1.7,0.6-2.2
			c0.4-0.5,1-0.8,1.8-0.8c0.7,0,1.3,0.2,1.7,0.7c0.4,0.5,0.6,1.2,0.6,2.2C418.9,181.6,418.7,182.4,418.3,182.9 M416.7,176
			c-1.5,0-2.6,0.4-3.4,1.3c-0.8,0.9-1.2,2-1.2,3.5c0,1.4,0.4,2.5,1.2,3.4c0.8,0.8,1.9,1.2,3.2,1.2c1.4,0,2.5-0.4,3.4-1.3
			c0.8-0.9,1.2-2,1.2-3.5c0-1.4-0.4-2.6-1.2-3.4C419.1,176.4,418.1,176,416.7,176"/>
		<path class="st2" d="M432.1,177.9v-1.7H430v-2.7l-0.1,0l-2,0.6l0,0v2h-3.1v-1.1c0-0.5,0.1-0.9,0.3-1.2c0.2-0.3,0.5-0.4,1-0.4
			c0.3,0,0.6,0.1,0.9,0.2l0.1,0v-1.8l0,0c-0.3-0.1-0.7-0.2-1.2-0.2c-0.6,0-1.2,0.1-1.7,0.4c-0.5,0.3-0.9,0.7-1.1,1.1
			c-0.3,0.5-0.4,1-0.4,1.7v1.2h-1.5v1.7h1.5v7.2h2.1v-7.2h3.1v4.6c0,1.9,0.9,2.9,2.6,2.9c0.3,0,0.6,0,0.9-0.1
			c0.3-0.1,0.5-0.1,0.6-0.2l0,0v-1.7l-0.1,0.1c-0.1,0.1-0.3,0.1-0.4,0.2c-0.2,0-0.3,0.1-0.4,0.1c-0.4,0-0.7-0.1-0.9-0.3
			c-0.2-0.2-0.3-0.6-0.3-1.2v-4.2H432.1"/>
		<polyline class="st3" points="345.9,178.4 336.2,178.4 336.2,168.5 345.9,168.5 345.9,178.4 		"/>
		<polyline class="st4" points="356.6,178.4 346.9,178.4 346.9,168.5 356.6,168.5 356.6,178.4 		"/>
		<polyline class="st5" points="345.9,189.3 336.2,189.3 336.2,179.4 345.9,179.4 345.9,189.3 		"/>
		<polyline class="st6" points="356.6,189.3 346.9,189.3 346.9,179.4 356.6,179.4 356.6,189.3 		"/>
		<path class="st7" d="M299.5,73.6c-1.3,0.8-2.8,1.1-4.4,1.1c-1.2,0-2.3-0.3-3.3-0.8c-1-0.6-1.7-1.4-2.2-2.4c-0.5-1-0.8-2.2-0.8-3.5
			c0-2,0.6-3.7,1.9-5.1c1.3-1.3,2.9-2,4.9-2c1.4,0,2.6,0.2,3.6,0.7v1.7c-1.1-0.7-2.3-1-3.8-1c-1,0-1.8,0.2-2.6,0.7
			c-0.8,0.5-1.4,1.1-1.8,2c-0.4,0.9-0.6,1.8-0.6,2.8c0,1.7,0.4,3,1.3,4c0.9,1,2,1.5,3.5,1.5c1,0,1.9-0.2,2.7-0.6V69h-2.9v-1.4h4.4
			V73.6"/>
		<path class="st7" d="M309.7,69.8c0-1.2-0.3-2.1-0.8-2.7c-0.5-0.6-1.3-1-2.2-1c-1,0-1.7,0.3-2.3,1c-0.6,0.7-0.8,1.6-0.8,2.8
			c0,1.1,0.3,2,0.8,2.7c0.6,0.6,1.3,1,2.3,1c1,0,1.7-0.3,2.2-0.9C309.4,71.9,309.7,71,309.7,69.8 M311.2,69.8c0,1.5-0.4,2.7-1.3,3.6
			c-0.8,0.9-2,1.4-3.4,1.4c-1.4,0-2.5-0.4-3.3-1.3c-0.8-0.9-1.2-2.1-1.2-3.5c0-1.6,0.4-2.8,1.3-3.7c0.8-0.9,2-1.4,3.5-1.4
			c1.4,0,2.5,0.4,3.3,1.3C310.8,67,311.2,68.2,311.2,69.8"/>
		<polyline class="st7" points="315.5,74.5 314,74.5 314,60.5 315.5,60.5 315.5,74.5 		"/>
		<path class="st7" d="M325.4,70.2v-1.4c0-0.8-0.3-1.4-0.8-2c-0.5-0.5-1.1-0.8-1.9-0.8c-0.9,0-1.6,0.3-2.1,1
			c-0.5,0.7-0.8,1.6-0.8,2.8c0,1.1,0.2,1.9,0.7,2.6c0.5,0.6,1.2,1,2,1c0.8,0,1.5-0.3,2-0.9C325.1,72,325.4,71.2,325.4,70.2
			 M326.9,74.5h-1.5v-1.6h0c-0.7,1.2-1.8,1.8-3.2,1.8c-1.2,0-2.1-0.4-2.8-1.3c-0.7-0.9-1-2-1-3.5c0-1.6,0.4-2.8,1.2-3.8
			c0.8-1,1.8-1.4,3.1-1.4c1.3,0,2.2,0.5,2.8,1.5h0v-5.9h1.5V74.5"/>
	</g>
</g>
</svg>
